<?xml version="1.0" standalone="no"?>
<!DOCTYPE svg PUBLIC "-//W3C//DTD SVG 20010904//EN"
 "http://www.w3.org/TR/2001/REC-SVG-20010904/DTD/svg10.dtd">
<svg version="1.0" xmlns="http://www.w3.org/2000/svg"
 width="100.000000pt" height="50.000000pt" viewBox="0 0 300.000000 192.000000"
 preserveAspectRatio="xMidYMid meet">
<metadata>
Created by potrace 1.10, written by Peter Selinger 2001-2011
</metadata>
<g transform="translate(0.000000,192.000000) scale(0.100000,-0.100000)"
fill="#000000" stroke="none">
<path d="M53 1900 c-12 -5 -26 -18 -32 -29 -8 -13 -11 -300 -11 -914 0 -890 0
-894 21 -921 l20 -26 1440 0 c934 0 1447 3 1459 10 10 5 23 25 29 42 7 23 9
315 6 918 l-4 885 -26 23 -26 22 -1427 -1 c-797 0 -1437 -4 -1449 -9z m2851
-68 c10 -16 10 -1732 0 -1742 -7 -7 -505 -9 -1415 -8 l-1404 3 -3 865 c-1 476
0 871 3 878 3 9 295 12 1409 12 773 0 1407 -4 1410 -8z m43 -259 c-2 -27 -3
-5 -3 47 0 52 1 74 3 48 2 -27 2 -69 0 -95z m-4 -584 c-4 -4 -6 31 -3 79 l5
87 3 -79 c2 -44 -1 -83 -5 -87z m4 -166 c-2 -21 -4 -6 -4 32 0 39 2 55 4 38 2
-18 2 -50 0 -70z m3 -183 c0 -49 -4 -90 -8 -90 -8 0 -9 31 -3 148 0 17 3 32 6
32 3 0 5 -40 5 -90z m-3 -370 c-2 -177 -4 -201 -20 -217 -16 -17 -53 -18 -495
-21 -524 -4 -1023 -3 -1819 0 l-522 3 -23 23 c-22 22 -23 27 -20 185 2 89 6
164 8 166 2 2 4 -63 4 -146 0 -138 2 -153 21 -177 l21 -27 1395 4 1395 3 19
23 c21 26 22 29 21 239 -1 84 3 150 8 147 4 -3 7 -95 7 -205z"/>
<path d="M215 1793 c-11 -2 -30 -6 -41 -8 -26 -6 -39 -44 -18 -52 8 -3 14 -11
14 -19 0 -17 12 -18 29 -1 11 10 13 9 7 -6 -3 -10 -6 -21 -6 -23 0 -2 -6 -4
-14 -4 -17 0 -32 -111 -22 -164 4 -19 3 -36 -1 -38 -4 -3 -2 -3 6 -1 8 2 11
-2 7 -12 -3 -9 -2 -13 3 -10 5 3 22 -6 38 -20 l28 -26 -37 3 c-20 1 -40 -1
-44 -5 -4 -4 69 -6 162 -5 93 1 152 3 132 5 -21 2 -38 8 -38 13 0 5 12 23 28
41 24 29 27 42 30 119 3 76 2 87 -17 104 -12 11 -21 31 -22 45 0 14 -3 20 -6
14 -7 -19 -190 -17 -227 2 -15 8 -33 12 -38 9 -6 -4 -9 -1 -6 7 6 17 30 19 40
4 5 -6 8 -6 8 3 0 7 13 12 30 12 23 0 30 -4 30 -20 0 -11 7 -20 15 -20 20 0
19 13 -2 32 -23 19 -43 25 -68 21z m182 -103 c47 -28 67 -65 67 -121 0 -109
-113 -176 -212 -125 -92 48 -97 193 -9 246 42 26 112 26 154 0z"/>
<path d="M253 1680 c-115 -70 -61 -240 76 -240 31 0 49 7 75 31 66 57 66 141
0 198 -42 37 -101 42 -151 11z m138 -13 c95 -64 51 -217 -63 -217 -118 0 -170
128 -84 207 44 41 96 44 147 10z"/>
<path d="M276 1618 c-32 -39 -32 -64 -1 -103 l25 -30 0 28 c0 20 -5 27 -20 27
-15 0 -20 7 -20 25 0 18 5 25 20 25 15 0 20 7 20 24 0 18 7 26 23 29 21 4 21
4 1 6 -13 0 -32 -12 -48 -31z"/>
<path d="M381 1568 c-1 -21 -6 -28 -21 -28 -19 0 -27 -20 -14 -33 12 -12 46
42 41 65 -4 20 -4 19 -6 -4z"/>
<path d="M621 1792 c-13 -4 -29 -15 -35 -25 -17 -26 11 -46 67 -48 42 -2 47
-5 47 -26 0 -12 5 -23 10 -23 6 0 9 3 9 8 -7 43 1 52 46 52 44 0 45 -1 46 -32
1 -24 3 -27 6 -10 2 12 10 22 16 22 7 0 6 4 -3 10 -11 7 -5 10 23 10 42 0 59
22 36 45 -16 16 -226 29 -268 17z m53 -29 c-5 -14 -4 -15 4 -4 14 19 60 25 78
10 10 -8 14 -8 14 0 0 6 5 11 11 11 6 0 8 -8 5 -17 -5 -15 -4 -15 9 1 11 14
15 16 15 5 0 -9 3 -10 8 -3 4 7 19 12 35 12 19 0 27 -6 27 -19 0 -17 -10 -18
-107 -18 -71 1 -110 5 -115 12 -6 9 -8 9 -8 0 0 -7 -11 -13 -25 -13 -17 0 -25
5 -25 18 0 14 9 19 40 20 34 2 39 0 34 -15z"/>
<path d="M1526 1784 c-26 -25 -20 -52 14 -59 16 -4 33 -11 36 -17 4 -6 2 -8
-4 -4 -14 8 -27 -73 -18 -110 10 -38 54 -104 71 -105 8 -1 21 -2 28 -3 13 -2
37 18 37 30 0 4 6 15 13 23 27 32 41 100 29 134 -6 18 -9 49 -5 69 5 34 3 39
-21 48 -44 16 -162 13 -180 -6z m48 -21 c-5 -17 -5 -17 6 0 9 13 25 17 75 17
58 0 65 -2 65 -20 0 -17 -7 -20 -45 -20 -36 0 -45 4 -46 18 -1 16 -2 16 -6 -1
-7 -26 -93 -22 -93 5 0 12 8 18 25 18 19 0 23 -4 19 -17z m115 -79 c12 -15 21
-34 21 -43 0 -22 -57 -141 -67 -141 -15 0 -63 109 -63 140 0 64 71 92 109 44z"/>
<path d="M1631 1657 c-23 -23 -7 -53 23 -41 20 8 20 21 2 39 -10 10 -16 11
-25 2z"/>
<path d="M1992 1793 c-25 -5 -48 -38 -32 -48 10 -6 -12 -35 -27 -36 -12 -1
-43 -31 -43 -42 0 -6 6 -2 14 8 7 10 19 19 27 21 8 1 26 5 42 9 21 6 27 4 27
-10 0 -9 -7 -16 -17 -14 -44 4 -57 -3 -23 -13 24 -7 36 -6 38 1 2 6 9 8 15 4
7 -4 8 0 4 11 -4 10 -1 19 7 22 26 10 106 10 106 1 0 -5 7 -4 15 3 23 19 1 30
-57 30 -27 0 -48 5 -48 10 0 6 -7 6 -19 -1 -23 -15 -53 -5 -45 15 8 22 112 18
118 -4 3 -12 4 -11 5 3 2 26 51 23 51 -3 0 -11 4 -20 9 -20 12 0 2 38 -12 47
-12 7 -124 12 -155 6z"/>
<path d="M2423 1790 c-22 -9 -22 -13 -22 -165 1 -85 5 -158 10 -161 7 -4 12
33 8 74 0 4 10 10 23 14 l23 6 -22 1 c-39 2 -25 18 19 24 24 3 48 1 55 -5 9
-7 13 -7 13 0 0 16 -24 21 -69 15 -27 -4 -41 -2 -41 6 0 12 79 15 115 5 11 -3
31 -20 45 -39 30 -39 36 -39 15 1 -8 16 -15 37 -15 46 0 16 -9 17 -80 11 l-80
-6 2 27 c2 26 4 26 76 26 50 0 80 -5 97 -16 20 -13 28 -14 39 -5 10 9 16 9 21
1 5 -8 11 -7 21 1 9 7 50 14 93 17 l77 4 1 -41 c1 -37 -2 -41 -23 -41 -13 0
-24 -5 -24 -10 0 -6 11 -8 25 -4 15 4 25 2 25 -5 0 -6 -8 -11 -17 -12 -15 0
-15 -2 -3 -7 8 -4 16 -15 16 -24 1 -13 -6 -18 -24 -18 -25 0 -25 1 -6 15 31
23 8 17 -30 -8 l-34 -24 48 5 c41 4 49 2 53 -14 3 -11 5 36 6 104 1 73 -3 122
-9 122 -5 0 -7 -6 -4 -14 4 -10 -12 -14 -73 -17 -121 -6 -354 4 -351 16 2 6
21 11 43 12 98 4 105 7 30 13 -58 5 -20 7 140 9 158 3 205 6 165 11 -30 5 -58
6 -62 4 -17 -11 -128 9 -128 22 0 7 -9 18 -19 24 -24 12 -137 12 -168 0z m175
-28 c-3 -14 -17 -17 -91 -19 -80 -3 -87 -1 -87 16 0 18 8 20 91 20 80 0 90 -2
87 -17z"/>
<path d="M522 1768 c-1 -13 -11 -18 -37 -18 -30 0 -35 -3 -34 -22 1 -17 2 -19
6 -6 3 11 13 17 28 16 33 -3 35 -32 35 -500 l-1 -408 -72 4 c-100 5 -97 4 -97
20 0 7 12 16 28 19 15 4 45 10 67 15 l40 10 -39 1 c-27 1 -37 5 -33 14 9 23
-27 35 -129 42 -96 7 -100 6 -120 -16 -18 -21 -25 -47 -24 -101 1 -65 7 -125
13 -135 4 -6 3 -14 -3 -18 -5 -3 -10 -22 -10 -40 0 -48 34 -69 100 -63 41 4
53 2 70 -17 11 -12 17 -25 13 -28 -3 -4 -39 -7 -78 -7 -81 0 -97 -10 -93 -56
2 -29 3 -29 56 -26 42 3 53 1 50 -10 -4 -9 -19 -12 -50 -10 -41 3 -46 1 -56
-25 -6 -15 -13 -71 -15 -125 -5 -91 -4 -97 18 -118 21 -20 30 -21 126 -17 57
3 124 9 149 15 45 9 45 10 10 11 -29 2 -31 4 -15 11 18 7 19 8 2 15 -9 4 -17
12 -17 18 0 6 3 7 7 4 3 -4 11 -3 17 2 6 4 21 11 34 14 18 4 22 1 22 -21 0
-14 3 -22 7 -19 3 4 6 20 5 37 0 17 4 28 9 25 5 -4 9 -24 9 -45 0 -33 5 -41
34 -60 33 -20 46 -21 263 -19 293 2 368 9 387 34 13 19 13 25 -1 63 -3 9 -7
23 -9 30 -6 32 -15 42 -35 42 -11 0 -29 10 -40 23 -14 17 -18 19 -19 6 0 -25
-41 -29 -296 -29 l-234 0 0 30 0 30 288 0 c189 0 282 4 272 10 -8 5 -82 11
-165 12 -139 2 -143 2 -60 8 74 5 80 7 32 8 -41 1 -59 6 -63 17 -8 19 -31 19
-41 1 -9 -15 -163 -28 -163 -13 0 4 -22 5 -50 1 -45 -6 -50 -5 -50 13 0 17 8
20 55 22 30 1 64 -3 75 -9 11 -6 20 -7 20 -2 0 5 50 9 111 10 61 1 114 4 117
7 3 3 -20 5 -51 5 -31 0 -57 4 -57 9 0 5 -10 11 -22 13 -13 2 78 5 201 6 123
0 226 3 229 6 3 4 -147 6 -334 5 -186 0 -330 -4 -319 -8 17 -7 15 -10 -18 -26
-28 -13 -38 -24 -36 -39 0 -12 0 -73 -2 -136 -2 -63 -6 250 -9 695 -3 446 -6
802 -8 793z m-192 -851 c0 -8 3 -8 8 -2 4 6 19 11 35 12 21 2 27 -2 27 -17 0
-18 -7 -20 -85 -20 -61 0 -85 3 -85 13 0 7 -3 8 -8 2 -4 -6 -19 -12 -34 -13
-22 -3 -28 1 -28 16 0 18 7 20 85 20 59 0 85 -3 85 -11z m-20 -88 l0 -29 -75
0 -75 0 0 28 c0 16 2 31 4 33 2 2 36 3 75 1 l71 -4 0 -29z m198 -46 c-3 -28
-3 -28 -89 -31 -82 -3 -87 -2 -92 19 -3 13 -4 26 -1 31 3 4 46 8 95 8 l90 0
-3 -27z m-198 -43 l0 -30 -75 0 -75 0 0 30 0 30 75 0 75 0 0 -30z m200 -50 l0
-30 -89 0 c-81 0 -90 2 -96 20 -11 34 3 40 96 40 l89 0 0 -30z m-259 -20 c59
0 59 0 59 -30 l0 -30 -75 0 -75 0 0 36 c0 29 3 35 16 30 9 -3 42 -6 75 -6z
m254 -75 l0 -30 -90 0 c-89 0 -90 0 -90 25 0 24 4 25 70 31 108 9 110 8 110
-26z m15 -147 c0 -62 -5 -120 -10 -128 -7 -11 -10 -1 -12 35 -1 44 -2 45 -5
13 -2 -21 -9 -38 -14 -38 -6 0 -7 5 -3 12 5 8 2 9 -11 4 -24 -9 -55 2 -55 20
0 9 12 14 38 15 l37 2 -40 7 c-39 6 -40 6 -10 12 30 5 30 5 -5 6 -19 1 -48 4
-65 7 -16 3 -40 8 -53 11 -13 2 -20 9 -17 14 8 13 91 6 109 -9 11 -9 14 -8 12
6 -1 18 3 20 62 22 50 2 38 21 -15 23 l-48 1 45 6 45 5 -45 5 c-32 4 -46 11
-48 24 -3 14 4 17 37 17 22 0 43 5 46 10 18 29 25 0 25 -102z m-176 44 c-5
-14 -4 -14 4 -3 17 24 52 24 52 1 0 -18 -7 -19 -91 -19 -78 0 -89 2 -79 15 8
8 8 14 2 14 -5 0 -12 -7 -16 -15 -5 -13 -46 -23 -46 -11 0 2 -2 11 -5 19 -5
11 11 14 89 15 86 2 95 0 90 -16z m52 -108 c-3 -9 -6 -24 -6 -35 0 -18 -8 -19
-115 -19 l-115 0 0 35 0 35 121 0 c106 0 120 -2 115 -16z m-6 -96 l0 -33 -115
0 -115 0 0 33 0 32 115 0 115 0 0 -32z m100 -8 c0 -23 -6 -31 -24 -36 -14 -3
-33 -4 -43 -1 -10 3 -5 5 14 6 17 0 35 6 39 12 4 8 -1 9 -15 4 -24 -7 -51 9
-51 30 0 8 15 13 40 13 38 1 40 -1 40 -28z m680 -14 c0 -22 -5 -23 -77 -29
-43 -4 -178 -7 -299 -7 -188 0 -223 2 -228 15 -3 8 -3 22 0 30 5 13 49 15 305
15 l299 0 0 -24z m-780 -61 l0 -35 -115 0 -115 0 0 35 0 35 115 0 115 0 0 -35z
m805 -15 l0 -25 -312 -3 c-305 -3 -312 -2 -318 18 -3 11 -3 24 0 30 4 7 114 9
318 8 l312 -3 0 -25z"/>
<path d="M1323 1743 c-13 -14 -23 -30 -23 -34 0 -4 10 -15 23 -24 15 -12 18
-19 10 -22 -7 -3 -13 -14 -13 -25 0 -11 5 -18 13 -15 6 2 11 10 10 16 -2 6 2
11 7 11 6 0 10 7 10 15 0 8 4 15 8 15 5 0 14 10 21 23 10 19 18 22 56 19 44
-4 45 -3 44 24 -1 17 -3 22 -6 12 -7 -26 -72 -27 -86 -2 -13 22 -50 15 -74
-13z m67 7 c0 -22 -33 -60 -51 -60 -25 0 -24 18 3 47 22 24 48 31 48 13z"/>
<path d="M2663 1703 c31 -2 83 -2 115 0 31 2 5 3 -58 3 -63 0 -89 -1 -57 -3z"/>
<path d="M610 1688 c-17 -6 -21 -14 -17 -30 3 -12 1 -31 -5 -42 -9 -17 -8 -19
3 -8 7 6 30 12 51 12 27 0 38 4 38 15 0 13 -22 19 -67 18 -7 -1 -13 5 -13 11
0 7 17 13 37 14 21 2 39 4 41 6 8 8 -47 12 -68 4z"/>
<path d="M2173 1655 c-24 -13 -38 -26 -30 -28 9 -4 9 -6 0 -6 -7 -1 -13 -13
-13 -28 l0 -28 18 26 c39 57 82 86 82 54 0 -8 -9 -15 -19 -15 -32 0 -33 -17
-2 -39 34 -25 69 -27 77 -6 7 18 31 20 36 2 2 -8 13 -10 33 -6 29 6 29 7 4 8
-15 0 -29 8 -33 16 -6 18 -27 20 -44 3 -14 -14 -62 -20 -62 -8 0 5 8 16 17 25
12 13 14 21 7 33 -15 23 -25 23 -71 -3z"/>
<path d="M1470 1660 c-8 -6 -28 -7 -44 -4 -19 4 -26 3 -22 -5 10 -16 86 -11
86 6 0 15 -1 16 -20 3z"/>
<path d="M886 1629 c-9 -45 -7 -107 2 -113 5 -3 10 20 11 52 1 31 4 65 7 75 3
9 1 17 -4 17 -5 0 -12 -14 -16 -31z"/>
<path d="M929 1648 c-6 -121 -6 -149 1 -123 4 17 8 45 9 64 2 49 10 33 12 -22
1 -26 6 -44 12 -40 13 8 -1 102 -19 120 -11 11 -14 12 -15 1z"/>
<path d="M1053 1585 c-1 -44 1 -72 4 -62 2 9 9 15 14 12 5 -4 10 2 10 12 2 28
-2 47 -11 53 -5 3 -10 19 -13 35 -2 17 -4 -6 -4 -50z"/>
<path d="M2758 1653 c-32 -2 -58 -9 -58 -15 0 -5 7 -7 16 -4 9 3 38 6 65 6 27
0 49 5 49 10 0 6 -3 9 -7 8 -5 -1 -34 -3 -65 -5z"/>
<path d="M1346 1608 c-23 -26 -36 -51 -35 -67 1 -21 2 -22 6 -6 12 48 58 70
83 40 7 -9 27 -14 51 -12 32 2 39 6 39 22 0 12 -3 16 -8 9 -26 -41 -109 -14
-98 32 9 33 3 31 -38 -18z"/>
<path d="M2473 1643 c20 -2 54 -2 75 0 20 2 3 4 -38 4 -41 0 -58 -2 -37 -4z"/>
<path d="M1217 1588 c8 -61 22 -83 22 -33 0 22 -6 48 -13 58 -13 16 -14 14 -9
-25z"/>
<path d="M1823 1614 c3 -4 -1 -13 -9 -21 -18 -19 -10 -30 10 -14 12 10 17 6
30 -21 17 -35 53 -64 64 -52 4 4 1 9 -7 12 -22 7 -52 42 -46 52 3 5 1 12 -5
15 -8 5 -7 11 1 21 9 11 6 14 -16 14 -16 0 -26 -3 -22 -6z"/>
<path d="M2065 1608 c11 -6 24 -17 28 -25 12 -19 27 -16 27 7 0 12 -5 17 -14
14 -8 -3 -17 -1 -21 5 -3 6 -14 11 -23 11 -14 -1 -14 -2 3 -12z"/>
<path d="M2683 1564 c-12 -31 -18 -52 -14 -48 31 36 50 68 45 75 -3 5 14 9 38
10 75 1 90 16 18 17 l-65 2 -22 -56z"/>
<path d="M771 1548 c1 -35 4 -49 6 -33 3 17 9 35 15 42 9 11 -5 53 -17 53 -3
0 -4 -28 -4 -62z"/>
<path d="M857 1603 c-4 -3 -7 -19 -7 -34 0 -22 -4 -26 -20 -22 -13 3 -20 0
-20 -8 0 -11 -2 -11 -10 1 -8 12 -10 11 -10 -6 0 -24 30 -29 31 -5 0 10 2 12
6 4 2 -7 11 -13 18 -13 8 0 16 -10 18 -22 2 -13 5 7 6 45 1 67 0 73 -12 60z"/>
<path d="M981 1593 c0 -10 4 -36 8 -58 l9 -40 1 35 c1 27 4 31 11 20 9 -13 10
-13 11 0 1 8 5 -10 9 -40 l7 -55 1 71 c2 54 -2 73 -12 77 -10 4 -16 -2 -19
-16 l-4 -22 -2 23 c-1 26 -21 31 -20 5z"/>
<path d="M1181 1588 c-5 -13 -5 -24 0 -26 5 -2 7 -8 3 -13 -3 -5 -1 -9 5 -9 5
0 12 -10 14 -22 2 -13 5 0 6 29 1 56 -14 78 -28 41z"/>
<path d="M599 1583 c-9 -109 -2 -125 51 -127 19 -1 28 -6 26 -13 -3 -6 3 -15
12 -19 12 -6 0 -10 -38 -14 -30 -4 448 -7 1062 -8 705 -1 1119 2 1123 8 3 6
-71 10 -199 12 -112 2 -202 0 -199 -4 2 -5 -14 -8 -35 -8 -34 0 -41 4 -46 25
-6 23 -11 25 -60 25 -51 0 -53 -1 -51 -25 4 -28 -2 -29 -79 -19 -47 7 -64 24
-24 24 15 0 19 3 12 10 -15 15 -44 1 -44 -21 0 -17 -8 -19 -75 -17 -41 0 -75
5 -75 10 0 18 6 22 32 23 14 0 30 4 34 8 5 4 -34 6 -86 5 -88 -3 -96 -5 -105
-25 -9 -21 -17 -23 -78 -23 -37 0 -66 3 -64 8 3 4 -15 5 -39 3 -27 -2 -44 1
-44 8 0 12 11 14 49 13 l25 -1 -22 15 c-19 13 -23 13 -42 -3 -11 -10 -20 -23
-20 -30 0 -10 -38 -13 -167 -13 l-168 0 3 69 c2 39 -1 78 -7 88 -8 14 -10 3
-11 -49 l0 -68 -280 0 -280 0 0 48 0 47 -45 -3 c-28 -3 -45 0 -45 7 0 6 18 11
40 11 33 0 40 3 40 20 0 17 -7 20 -40 20 -31 0 -40 -4 -41 -17z m81 -95 c0 -4
-18 -8 -40 -8 -22 0 -40 5 -40 10 0 6 17 10 40 8 22 -1 40 -6 40 -10z m450
-61 c0 -4 5 -5 10 -2 6 3 10 1 10 -5 0 -7 -7 -9 -16 -6 -9 3 -24 6 -35 6 -10
0 -19 4 -19 10 0 5 11 9 25 8 14 -1 25 -6 25 -11z m810 3 c0 -5 -22 -10 -50
-10 -27 0 -50 5 -50 10 0 6 23 10 50 10 28 0 50 -4 50 -10z m410 0 c0 -5 -20
-10 -45 -10 -25 0 -45 5 -45 10 0 6 20 10 45 10 25 0 45 -4 45 -10z"/>
<path d="M700 1571 c0 -17 5 -33 10 -36 6 -4 10 8 10 29 0 20 -4 36 -10 36 -5
0 -10 -13 -10 -29z"/>
<path d="M732 1550 c4 -62 15 -65 20 -5 2 30 -1 46 -10 50 -10 4 -12 -7 -10
-45z"/>
<path d="M1104 1570 c-1 -16 2 -27 7 -25 4 3 10 -7 12 -22 3 -24 4 -23 6 8 0
19 -5 43 -11 52 -12 15 -13 14 -14 -13z"/>
<path d="M1143 1532 c0 -46 2 -59 7 -42 11 35 12 98 2 104 -5 3 -9 -25 -9 -62z"/>
<path d="M2276 1555 c-6 -17 -36 -21 -36 -5 0 6 -8 10 -17 10 -16 -1 -15 -3 4
-19 20 -17 26 -17 60 -5 21 7 47 13 57 14 28 0 17 6 -25 14 -28 5 -38 3 -43
-9z"/>
<path d="M1357 1534 c-15 -13 -23 -24 -18 -24 6 0 11 -4 11 -10 0 -5 -7 -10
-15 -10 -8 0 -15 -9 -15 -20 0 -25 18 -26 27 -2 3 9 13 25 21 35 8 9 12 17 7
17 -4 0 -2 7 5 15 21 26 7 25 -23 -1z"/>
<path d="M1831 1534 c13 -14 23 -34 21 -45 -3 -17 3 -19 55 -18 42 0 52 3 38
9 -11 5 -31 9 -45 9 -17 1 -32 12 -48 36 -12 19 -27 35 -34 35 -6 0 -1 -12 13
-26z"/>
<path d="M2100 1554 c0 -5 -21 -20 -46 -34 -49 -26 -44 -41 7 -20 29 13 56 46
45 58 -3 3 -6 1 -6 -4z"/>
<path d="M2540 1539 c27 -21 80 -52 80 -46 0 2 -20 18 -44 35 -49 35 -76 44
-36 11z"/>
<path d="M2095 1500 c-15 -29 -11 -38 10 -22 11 7 20 52 11 52 -3 0 -12 -13
-21 -30z"/>
<path d="M2460 1505 c-24 -14 -23 -14 25 -15 61 0 100 -19 45 -21 -60 -3 -81
-6 -90 -15 -5 -5 14 -8 47 -5 39 2 58 -1 64 -10 6 -10 9 -11 9 -1 0 6 9 12 19
12 11 0 22 -6 24 -12 4 -10 6 -10 6 0 1 13 31 17 31 4 0 -5 7 -9 15 -9 8 0 15
4 15 9 0 4 7 8 16 8 8 0 12 -4 9 -10 -3 -5 -1 -10 4 -10 6 0 11 5 11 10 0 15
30 12 30 -2 0 -7 5 -5 11 5 10 18 12 18 30 1 17 -15 19 -15 14 -2 -5 12 0 18
17 21 31 6 -60 10 -144 7 -54 -2 -78 3 -124 24 -31 14 -57 26 -58 26 0 -1 -12
-7 -26 -15z"/>
<path d="M1400 1489 c0 -12 24 -15 60 -9 35 6 34 6 -12 11 -27 2 -48 1 -48 -2z"/>
<path d="M215 1381 l50 -6 -27 -19 c-16 -10 -35 -15 -44 -12 -13 5 -14 4 -6
-7 16 -19 3 -28 -22 -15 -17 8 -19 8 -9 -2 9 -10 9 -19 -3 -42 -20 -39 -20
-104 1 -156 17 -42 65 -92 90 -92 7 0 16 -7 19 -16 5 -14 1 -16 -31 -11 -21 3
-48 8 -60 11 -16 3 -20 1 -16 -10 7 -20 328 -21 336 -1 4 10 -5 13 -29 12 -24
-2 -34 2 -34 13 0 10 9 13 35 10 19 -2 35 0 35 4 0 4 -3 8 -7 8 -5 0 -14 4
-21 9 -11 6 -9 18 9 56 20 43 21 53 11 103 -6 30 -9 59 -6 63 3 5 -2 9 -10 9
-9 0 -16 7 -16 16 0 8 -4 12 -10 9 -5 -3 -10 1 -10 9 0 8 6 16 13 19 6 2 2 3
-9 1 -12 -2 -37 3 -55 10 -40 17 -29 24 46 29 28 2 -22 3 -110 4 -88 0 -137
-3 -110 -6z m175 -63 c55 -38 75 -73 75 -133 0 -65 -23 -100 -85 -132 -94 -48
-195 5 -214 112 -22 120 125 220 224 153z"/>
<path d="M255 1255 c-18 -17 -25 -35 -25 -63 0 -94 115 -126 163 -44 51 87
-67 179 -138 107z m90 -44 c0 -8 -12 -15 -27 -17 -22 -2 -28 2 -28 16 0 14 7
18 28 17 15 -2 27 -8 27 -16z m-5 -47 c0 -8 -10 -14 -25 -14 -29 0 -35 26 -7
33 22 5 32 -1 32 -19z"/>
<path d="M581 1364 c-20 -25 -26 -50 -22 -83 2 -7 -2 -10 -8 -6 -7 4 -11 -4
-11 -20 0 -14 4 -24 9 -20 26 15 35 -101 16 -202 -6 -34 11 -79 39 -102 17
-15 53 3 62 31 4 14 16 18 52 18 39 0 49 4 57 22 12 27 44 36 56 16 7 -11 9
-11 9 1 0 7 6 11 15 7 12 -4 15 5 15 54 l0 60 -45 0 c-29 0 -45 -4 -45 -12 0
-10 -3 -9 -9 1 -5 7 -14 10 -20 7 -7 -5 -11 2 -11 18 0 32 16 34 26 4 6 -19 7
-19 16 -5 11 20 48 23 48 5 0 -10 3 -9 9 1 5 7 14 10 20 7 6 -4 11 -1 11 6 0
7 9 24 20 38 24 30 27 115 6 146 -13 18 -12 20 15 22 33 3 33 2 17 -33 -10
-22 -9 -28 8 -40 10 -8 29 -13 41 -10 22 5 22 4 26 -127 l3 -133 2 163 c1 109
-1 162 -9 162 -5 0 -7 5 -4 10 4 6 10 8 14 6 4 -3 13 -1 21 5 10 5 -68 9 -207
9 l-222 0 -20 -26z m170 -14 l129 0 0 -65 0 -65 -145 0 -145 0 0 71 c0 61 2
70 16 65 9 -3 74 -6 145 -6z m234 -16 c0 -10 -8 -20 -18 -22 -22 -4 -35 27
-16 39 20 12 34 5 34 -17z m-351 -149 c-4 -8 -2 -15 2 -15 5 0 9 -48 9 -108 1
-88 -2 -108 -15 -113 -8 -4 -18 -5 -22 -3 -3 2 -4 47 -2 101 4 72 2 98 -8 105
-10 8 -10 11 0 15 6 2 12 11 12 19 0 8 7 14 15 14 9 0 12 -6 9 -15z m96 -25
c0 -15 -6 -19 -25 -18 -30 3 -31 6 -7 24 24 19 32 17 32 -6z m35 -75 c0 -10
-6 -20 -12 -22 -8 -3 -13 5 -13 22 0 17 5 25 13 23 6 -3 12 -13 12 -23z m93
-3 c2 -8 -10 -12 -37 -12 -39 0 -50 8 -34 24 11 10 66 1 71 -12z m-100 -65
c-2 -16 -11 -22 -30 -24 -23 -1 -28 2 -28 21 0 19 6 23 31 24 26 1 30 -3 27
-21z"/>
<path d="M1051 1385 c3 -2 152 -5 332 -5 l327 -1 -15 -23 c-14 -21 -14 -25 3
-46 14 -17 24 -21 41 -15 20 6 22 12 19 46 -3 30 0 39 12 39 12 0 15 -8 12
-35 -4 -34 -4 -35 34 -36 22 -1 43 -1 47 0 4 1 5 -16 2 -36 l-5 -38 15 33 c27
57 40 39 36 -48 -2 -41 6 -55 36 -64 19 -6 22 -4 16 11 -6 16 -5 16 10 4 14
-11 17 -11 17 0 0 8 -8 19 -19 26 -14 9 -18 9 -17 0 0 -7 -3 -12 -9 -12 -5 0
-9 5 -7 12 1 6 -2 14 -8 18 -5 3 -10 11 -10 16 0 6 5 7 12 3 8 -5 9 -2 4 12
-4 10 -10 31 -13 47 -3 15 -10 27 -15 27 -6 0 -8 7 -4 15 3 8 1 15 -4 15 -6 0
-10 7 -10 15 0 11 19 15 88 18 48 1 -142 4 -422 5 -280 1 -507 0 -505 -3z
m697 -48 c4 -21 -25 -34 -40 -19 -8 8 -8 16 2 27 16 19 34 15 38 -8z m56 11
c-6 -10 -4 -10 7 -2 18 14 49 14 49 0 0 -6 5 -4 10 4 8 12 10 11 10 -7 0 -19
-5 -21 -45 -21 -38 0 -45 3 -45 19 0 10 5 19 11 19 5 0 7 -6 3 -12z"/>
<path d="M2355 1380 c240 -4 285 -7 263 -17 -16 -7 -28 -14 -28 -15 0 -2 24
-1 54 0 104 7 177 -56 184 -157 3 -46 0 -62 -20 -90 -67 -98 -178 -113 -260
-34 -39 38 -65 112 -54 155 3 13 -3 5 -14 -17 -11 -22 -20 -50 -20 -62 0 -16
-4 -21 -16 -16 -12 5 -13 7 -2 14 10 6 10 11 0 21 -9 9 -15 9 -24 -1 -11 -11
-10 -12 0 -6 9 4 12 2 11 -6 -5 -21 20 -59 37 -59 9 0 14 -7 12 -17 -5 -29
-22 -18 -55 38 -18 30 -37 55 -42 57 -4 1 -23 -9 -40 -24 -26 -21 -34 -24 -46
-14 -12 10 -15 9 -15 -9 0 -12 6 -21 15 -21 25 0 76 30 70 40 -4 6 2 10 11 10
10 0 14 -3 11 -7 -4 -3 2 -12 13 -20 11 -8 20 -25 20 -37 0 -13 10 -31 23 -40
l22 -17 -22 6 c-13 4 -23 2 -23 -4 0 -6 7 -11 15 -11 8 0 15 -4 15 -10 0 -5
-16 -10 -36 -10 -24 0 -34 4 -31 13 2 6 10 11 16 9 6 -1 11 2 11 8 0 14 -16
12 -29 -4 -6 -7 -9 -21 -5 -30 4 -10 1 -16 -9 -16 -22 0 -48 11 -43 19 2 3
-13 5 -35 3 -30 -3 -39 -1 -39 11 0 8 5 18 10 20 6 3 5 4 -2 3 -7 -1 -15 -13
-18 -27 -8 -33 -42 -32 -51 1 -5 17 -7 19 -8 7 -1 -17 -9 -18 -70 -15 -52 2
-67 0 -64 -9 7 -18 -22 -16 -60 3 -18 9 -29 13 -25 9 4 -5 3 -14 -3 -22 -10
-11 63 -13 439 -13 490 0 484 -1 441 54 l-21 26 22 44 c26 54 28 131 6 174 -9
17 -35 48 -57 69 l-41 38 43 6 c24 3 -129 6 -341 5 l-385 -1 290 -5z m197
-368 c37 -15 45 -32 14 -32 -14 0 -28 5 -31 10 -3 6 -15 10 -26 10 -10 0 -19
6 -19 14 0 16 17 15 62 -2z m288 -7 c0 -11 -11 -15 -42 -15 -30 0 -39 3 -28 9
8 6 18 7 22 5 4 -3 8 0 8 5 0 6 9 11 20 11 11 0 20 -7 20 -15z"/>
<path d="M1412 1282 c4 -42 5 -85 2 -96 -13 -39 18 -3 43 52 27 61 27 61 53
-11 12 -35 27 -27 36 18 9 48 20 44 36 -12 15 -51 38 -70 38 -30 0 14 3 32 6
40 5 13 8 13 25 -4 16 -16 19 -34 19 -109 l0 -90 -310 0 -310 0 0 120 c0 76
-4 120 -10 120 -17 0 -24 -31 -9 -41 8 -5 9 -9 3 -9 -16 0 -17 -180 -1 -180 8
0 7 -3 -2 -9 -12 -8 -12 -13 3 -36 l18 -27 -46 3 c-25 2 -48 0 -52 -4 -4 -4
215 -7 486 -7 437 0 491 2 480 15 -7 8 -27 15 -45 15 -19 0 -36 6 -39 13 -3 6
-3 2 0 -11 5 -21 3 -23 -35 -20 -29 1 -40 6 -37 15 3 7 1 15 -4 18 -6 4 -10 1
-10 -6 0 -7 -8 -9 -21 -6 -15 4 -19 2 -15 -9 4 -10 -3 -14 -29 -14 -18 0 -37
5 -40 10 -3 6 -17 10 -31 10 -13 0 -24 5 -24 10 0 14 47 13 52 -2 2 -6 15 3
28 21 20 29 23 45 22 117 0 85 -6 109 -23 99 -5 -4 -9 1 -9 9 0 12 -10 16 -36
16 -23 0 -41 6 -49 17 -12 16 -14 16 -30 -1 -18 -18 -42 -16 -37 3 5 22 -29
24 -44 2 -20 -29 -36 -27 -28 4 4 16 2 25 -6 25 -6 0 -9 4 -6 9 3 5 0 14 -7
19 -10 9 -11 -4 -5 -66z m-332 -273 c0 -6 7 -9 15 -6 8 4 17 2 20 -3 7 -12 -1
-12 -44 -4 -34 7 -42 24 -11 24 11 0 20 -5 20 -11z m230 1 c0 -5 -13 -10 -30
-10 -16 0 -30 5 -30 10 0 6 14 10 30 10 17 0 30 -4 30 -10z m60 -15 c0 -16
-35 -21 -44 -6 -8 12 4 21 26 21 10 0 18 -7 18 -15z m200 0 c0 -10 -9 -14 -25
-13 -25 2 -31 9 -18 21 12 13 43 7 43 -8z"/>
<path d="M1381 1345 c-2 -5 -3 -13 -2 -17 0 -5 -6 -8 -14 -8 -8 0 -15 -4 -15
-10 0 -5 -7 -10 -16 -10 -8 0 -12 5 -9 10 3 6 -1 10 -9 10 -21 0 -19 -27 4
-70 19 -36 25 -33 33 20 4 32 13 13 24 -55 l8 -50 3 48 c3 49 -2 149 -7 132z"/>
<path d="M1268 1326 c-10 -7 -18 -21 -18 -31 0 -10 -10 -26 -22 -36 -14 -13
-16 -19 -7 -19 12 0 12 -2 0 -9 -8 -5 -12 -18 -8 -30 3 -13 0 -21 -8 -21 -8 0
-11 9 -7 25 3 21 0 25 -18 25 -20 0 -21 -3 -15 -42 9 -53 8 -52 35 -36 23 14
70 104 70 135 0 23 11 38 30 46 13 5 13 5 0 6 -8 0 -23 -6 -32 -13z"/>
<path d="M2606 1331 c-19 -7 -19 -8 2 -13 24 -7 29 -36 10 -57 -11 -11 -8 -12
12 -6 37 11 48 33 34 69 -7 17 -27 19 -58 7z"/>
<path d="M2053 1298 c-15 -20 -23 -59 -10 -51 6 4 8 0 4 -10 -4 -11 -2 -14 9
-10 7 3 14 12 14 20 0 8 -4 11 -10 8 -13 -8 -13 1 1 27 12 23 7 35 -8 16z"/>
<path d="M2084 1295 c3 -8 9 -22 13 -32 4 -11 3 -14 -5 -9 -8 5 -12 0 -12 -14
0 -12 4 -19 9 -16 5 4 11 0 14 -6 2 -7 3 7 2 32 -4 61 -4 60 -16 60 -6 0 -8
-7 -5 -15z"/>
<path d="M1071 1232 c1 -26 5 -58 9 -72 7 -20 8 -17 9 22 1 26 5 57 10 70 7
20 6 24 -10 25 -16 2 -19 -5 -18 -45z"/>
<path d="M1120 1219 c0 -27 4 -48 9 -45 7 5 12 18 26 84 2 6 -5 12 -16 12 -16
0 -19 -7 -19 -51z"/>
<path d="M2240 1250 c-14 -11 -38 -22 -55 -26 -16 -4 -33 -12 -37 -18 -6 -8
-11 -7 -18 4 -8 13 -10 13 -10 -2 0 -13 7 -17 28 -15 38 4 122 48 122 64 0 16
0 16 -30 -7z"/>
<path d="M2280 1260 c0 -5 7 -7 16 -3 9 3 20 0 25 -8 14 -23 10 -30 -9 -20
-14 8 -33 3 -78 -18 -53 -25 -57 -29 -39 -38 11 -6 26 -8 33 -6 6 3 12 0 12
-5 0 -5 16 -12 35 -14 22 -2 34 0 32 6 -2 6 3 16 12 23 9 6 13 14 10 17 -3 4
-17 -2 -30 -12 -14 -11 -31 -17 -41 -13 -16 6 -15 8 2 31 16 20 20 22 20 8 0
-10 5 -18 11 -18 5 0 7 5 3 12 -5 7 -2 9 9 5 8 -3 21 1 28 9 9 11 15 12 25 3
27 -22 14 4 -13 27 -28 24 -63 32 -63 14z"/>
<path d="M2653 1253 c-18 -7 -16 -23 2 -23 14 0 20 -12 16 -33 -1 -5 3 -6 9
-2 5 3 13 -1 17 -10 7 -21 -18 -40 -29 -22 -5 8 -8 6 -8 -7 0 -18 -1 -18 -19
-1 -14 12 -19 28 -17 53 l3 35 -19 -23 c-12 -15 -18 -18 -18 -7 0 10 -7 13
-24 10 -13 -3 -27 0 -30 6 -12 18 -23 12 -28 -14 -4 -20 -1 -26 19 -31 13 -4
32 -4 43 -1 14 3 21 -1 26 -17 21 -68 97 -78 129 -15 18 34 8 69 -27 93 -24
17 -26 17 -45 9z"/>
<path d="M1881 1232 c-1 -13 -9 -31 -18 -40 -16 -16 -15 -17 6 -20 32 -5 35 1
23 45 -7 27 -10 31 -11 15z"/>
<path d="M1837 1212 c-10 -10 -17 -24 -17 -30 0 -7 -5 -12 -11 -12 -5 0 -8 -4
-4 -9 3 -5 -2 -16 -10 -24 -22 -23 -18 -33 5 -12 11 10 20 22 20 27 0 5 10 22
22 38 24 33 20 50 -5 22z"/>
<path d="M2380 1217 c0 -11 32 -37 46 -37 20 0 18 16 -3 24 -10 3 -24 9 -30
12 -7 3 -13 3 -13 1z"/>
<path d="M2334 1176 c-11 -23 -11 -23 18 -7 32 18 36 31 11 31 -10 0 -23 -11
-29 -24z"/>
<path d="M2118 1183 c-25 -3 -38 -9 -38 -19 0 -11 4 -12 19 -4 11 5 29 10 40
10 12 0 21 5 21 10 0 6 -1 9 -2 8 -2 -1 -20 -3 -40 -5z"/>
<path d="M2007 1173 c-13 -12 -7 -32 12 -38 28 -8 51 4 51 29 0 11 -4 17 -8
11 -10 -14 -32 -17 -32 -5 0 11 -13 13 -23 3z"/>
<path d="M1836 1151 c-4 -6 -5 -11 -2 -11 2 0 -9 -13 -25 -29 -16 -16 -29 -38
-29 -48 1 -16 3 -15 20 6 11 13 20 30 20 38 0 8 4 12 9 8 6 -3 13 0 18 7 11
17 57 16 64 -1 3 -8 16 -15 30 -16 98 -8 145 -18 157 -33 6 -9 12 -11 12 -4 0
12 83 54 103 51 30 -4 57 2 57 12 0 18 -126 -1 -140 -22 -3 -4 -30 -3 -60 2
-30 5 -66 7 -78 4 -13 -3 -21 -2 -18 3 3 5 -6 14 -20 21 -20 9 -24 9 -18 -1 6
-10 5 -10 -7 -1 -21 17 -85 27 -93 14z"/>
<path d="M823 1003 c-57 -5 -55 -20 2 -20 31 0 45 4 45 13 0 8 -1 13 -2 12 -2
-1 -22 -3 -45 -5z"/>
<path d="M208 973 c23 -2 59 -2 80 0 20 2 1 4 -43 4 -44 0 -61 -2 -37 -4z"/>
<path d="M1140 953 c116 -2 209 -8 214 -13 7 -7 6 -10 -2 -10 -18 0 -14 -32 8
-58 14 -17 25 -21 44 -16 37 9 35 -22 -5 -80 -16 -25 -31 -54 -31 -63 -2 -55
80 -153 128 -153 30 1 83 41 104 79 16 31 28 25 33 -16 2 -21 4 41 3 137 0
139 -1 154 -5 75 l-6 -100 -32 45 c-37 50 -40 66 -17 99 13 18 14 28 5 47 -10
24 -10 24 41 24 40 0 49 -3 40 -12 -17 -17 -16 -337 1 -359 9 -13 11 22 9 170
-2 102 -1 183 2 180 3 -3 7 -17 8 -31 l2 -26 94 1 c78 2 97 5 106 19 8 13 8
23 -2 38 -12 19 -10 20 58 20 38 0 70 -3 70 -7 -1 -12 -42 -56 -80 -84 -41
-30 -95 -50 -115 -43 -8 4 -23 -8 -37 -30 -13 -19 -40 -45 -60 -56 -38 -21
-38 -22 -37 -83 0 -34 2 -57 5 -52 2 6 33 9 74 7 61 -3 70 -6 70 -23 0 -10 4
-19 10 -19 5 0 7 7 4 15 -5 12 4 15 45 15 39 0 51 -4 51 -15 0 -8 8 -15 18
-15 13 0 14 2 3 9 -27 17 -5 32 54 36 33 2 68 6 78 10 12 5 17 2 17 -12 0 -23
19 -43 40 -42 10 0 7 4 -7 11 -23 11 -23 15 -23 184 0 141 -3 172 -13 168 -8
-3 -20 2 -27 11 -11 13 -8 15 21 15 l34 0 -2 -162 c-1 -97 1 -155 6 -143 8 18
9 19 16 3 4 -10 11 -16 16 -13 4 3 3 17 -3 30 -6 13 -15 22 -19 19 -13 -8 -11
74 2 98 6 12 7 18 1 14 -6 -3 -9 11 -8 37 1 36 4 42 21 39 42 -6 48 -11 35
-27 -11 -13 -9 -13 16 0 30 16 103 20 120 8 5 -5 -1 2 -13 14 -13 12 -23 30
-23 41 0 10 -5 23 -12 30 -9 9 13 12 102 12 l115 0 -2 -62 c0 -35 1 -51 4 -35
2 15 9 25 15 21 5 -3 64 -8 130 -10 66 -1 122 -5 125 -7 2 -3 1 -16 -3 -31 -5
-22 -12 -26 -43 -27 l-36 -2 35 -7 c24 -5 3 -7 -65 -8 -65 0 -90 3 -70 8 30 8
30 8 3 9 -14 0 -29 7 -31 14 -3 6 -6 0 -6 -15 -1 -28 0 -28 67 -29 58 -2 62
-3 27 -9 -39 -6 -39 -6 -10 -12 21 -3 13 -5 -25 -6 -39 0 -49 2 -35 8 19 8 19
9 -2 9 -20 1 -23 -4 -23 -38 0 -34 4 -40 31 -51 24 -10 32 -11 38 -1 4 7 13
11 20 9 14 -3 23 10 42 61 l13 34 9 -26 c7 -22 12 -25 27 -17 26 14 60 76 60
110 0 16 5 32 10 35 6 4 10 -38 10 -119 l0 -126 -135 0 -135 0 0 97 c0 107 -6
119 -14 28 -10 -112 -20 -144 -24 -78 -5 63 -12 50 -12 -20 0 -37 4 -67 9 -67
5 0 7 9 4 20 -7 25 13 26 29 1 11 -18 13 -18 37 -3 17 11 22 12 17 4 -6 -11 0
-13 31 -11 21 2 43 0 49 -4 6 -3 14 -3 18 0 4 4 25 6 48 4 27 -2 38 1 33 8 -4
8 2 7 19 -1 14 -6 26 -14 26 -17 0 -3 -55 -6 -122 -6 -133 1 -180 -3 -173 -14
3 -6 225 -8 291 -3 21 2 21 6 20 161 -1 136 -3 162 -18 178 -24 26 -23 41 5
46 12 2 -408 4 -933 3 -525 0 -863 -2 -750 -3z m326 -34 c10 -9 14 -9 14 0 0
7 17 11 45 9 35 -1 45 -5 45 -18 0 -15 -13 -18 -100 -18 -90 -1 -100 0 -100
17 0 14 9 18 41 19 23 1 48 -3 55 -9z m368 -1 c-6 -10 -4 -10 7 0 19 17 29 15
29 -8 0 -18 -7 -19 -79 -19 -69 0 -80 3 -84 20 -5 17 1 19 65 19 52 0 67 -3
62 -12z m220 -125 l-1 -138 6 119 c4 82 10 121 19 124 9 3 12 -28 12 -132 l0
-135 -30 2 -30 2 0 125 c0 69 -3 135 -6 148 -5 17 -2 22 12 22 18 0 19 -10 18
-137z m226 116 c0 -16 -7 -19 -50 -19 -41 0 -50 3 -51 18 0 15 -1 14 -8 -2 -7
-19 -8 -19 -13 1 -5 21 -2 22 58 22 57 0 64 -2 64 -20z m284 9 c-5 -7 -3 -8 7
-2 7 4 42 10 78 11 57 4 63 2 57 -14 -5 -16 -5 -16 6 -3 22 27 89 15 72 -12
-3 -4 -63 -8 -135 -8 -122 0 -129 1 -129 20 0 15 7 20 26 20 16 0 23 -4 18
-12z m-545 -156 l2 -128 -46 1 -45 0 0 103 c0 61 4 102 10 102 6 0 10 -38 11
-92 0 -63 3 -86 9 -73 5 11 6 57 3 103 -4 58 -2 82 6 82 14 0 12 10 21 -105
l8 -100 -3 118 c-2 91 0 117 10 117 10 0 13 -30 14 -128z m-489 79 c0 -20 -6
-31 -17 -34 -14 -4 -14 -5 3 -6 35 -2 74 -49 74 -88 0 -63 -33 -102 -88 -103
-46 0 -71 16 -88 56 -8 19 -20 34 -27 34 -8 1 -7 5 3 13 8 7 21 25 28 40 6 15
26 34 43 41 24 10 27 15 15 19 -9 4 -16 18 -16 32 0 22 4 25 35 25 32 0 35 -2
35 -29z m294 -55 c-3 -8 0 -17 7 -22 8 -4 10 -3 5 4 -4 7 -3 12 3 12 12 0 19
-25 24 -85 2 -22 4 -7 3 33 -1 48 2 72 10 72 7 0 12 -29 13 -83 l2 -83 -46 1
-45 0 0 83 c0 65 3 82 15 82 8 0 12 -6 9 -14z m96 -81 c0 -43 -4 -75 -10 -75
-6 0 -10 32 -10 75 0 43 4 75 10 75 6 0 10 -32 10 -75z m-130 -25 c0 -25 -5
-40 -12 -41 -7 -1 -28 -3 -46 -5 -32 -4 -33 -3 -30 29 2 26 8 33 28 35 l25 2
-25 -15 -25 -15 27 6 c20 4 27 1 31 -13 4 -11 6 -6 5 12 0 42 1 45 12 45 6 0
10 -18 10 -40z"/>
<path d="M1441 754 c-12 -15 -21 -37 -21 -49 0 -38 37 -75 76 -75 45 0 74 29
74 75 0 72 -86 104 -129 49z m39 -14 c-11 -7 -12 -10 -2 -10 7 0 10 -4 7 -10
-3 -5 -1 -10 4 -10 6 0 11 11 11 25 0 28 21 33 40 10 16 -19 15 -74 -1 -89 -9
-8 -10 -7 -4 4 6 10 1 8 -13 -4 l-22 -19 -2 34 -1 34 -4 -32 c-3 -23 -8 -30
-19 -26 -11 4 -12 8 -3 19 10 12 9 13 -5 8 -9 -3 -16 -2 -16 4 0 6 6 13 13 15
7 3 5 6 -5 6 -29 2 -20 42 12 53 21 7 27 -1 10 -12z"/>
<path d="M1820 700 c0 -22 5 -40 10 -40 6 0 10 18 10 40 0 22 -4 40 -10 40 -5
0 -10 -18 -10 -40z"/>
<path d="M2478 930 c-4 -8 -9 -92 -10 -185 -3 -146 -1 -171 12 -171 13 0 15
19 12 121 -4 205 -7 251 -14 235z"/>
<path d="M541 887 c0 -10 6 -20 14 -23 8 -4 15 -18 15 -34 0 -24 3 -27 23 -22
18 5 19 7 5 10 -22 4 -24 22 -3 22 8 0 15 5 15 10 0 6 -9 10 -20 10 -11 0 -20
5 -20 11 0 5 -4 8 -9 4 -5 -3 -12 3 -14 12 -4 17 -5 17 -6 0z"/>
<path d="M2854 750 c0 -74 1 -105 3 -67 2 37 2 97 0 135 -2 37 -3 6 -3 -68z"/>
<path d="M2256 826 c3 -7 -11 -25 -31 -40 -23 -18 -35 -35 -35 -51 0 -13 -6
-26 -12 -28 -9 -4 -10 -8 -2 -14 6 -4 14 -17 19 -28 7 -17 9 -15 16 15 4 19 6
42 4 51 -7 23 19 54 36 43 8 -4 24 -7 37 -5 20 2 22 -2 22 -39 0 -34 -3 -41
-17 -38 -9 2 -20 14 -24 28 -6 23 -7 23 -8 3 -1 -12 -5 -25 -11 -28 -5 -3 -9
-14 -9 -23 1 -15 2 -15 6 1 6 25 37 17 41 -11 3 -20 -1 -22 -42 -22 -49 0 -62
-16 -21 -26 31 -8 55 -34 31 -34 -9 0 -16 -4 -16 -10 0 -5 26 -10 57 -10 31 0
53 3 50 7 -10 9 23 43 42 43 9 0 25 7 36 16 19 14 20 13 26 -13 4 -16 7 9 7
57 1 81 0 86 -27 107 -15 12 -41 23 -57 25 -16 2 -32 7 -36 13 -4 6 -19 3 -39
-9 -32 -19 -32 -19 -27 2 4 12 0 23 -8 26 -8 3 -11 0 -8 -8z m141 -58 c6 -7
11 -39 11 -70 l1 -58 -54 0 c-48 0 -55 3 -55 19 0 29 17 35 30 10 7 -11 14
-18 17 -15 3 3 -1 16 -8 28 -8 13 -14 36 -14 52 0 23 6 32 25 37 36 10 37 10
47 -3z m-67 -150 c0 -3 3 -13 6 -22 5 -13 -1 -16 -25 -16 -17 0 -31 4 -31 9 0
5 -2 15 -5 23 -4 9 4 13 25 13 16 0 30 -3 30 -7z"/>
<path d="M2361 720 c-8 -24 -7 -30 5 -30 7 0 14 -8 15 -17 0 -12 2 -13 6 -5 3
7 0 18 -6 25 -5 7 -8 23 -4 35 8 33 -3 27 -16 -8z"/>
<path d="M541 773 c1 -27 4 -37 6 -23 5 27 23 52 23 32 0 -7 9 -12 20 -12 11
0 20 5 20 10 0 6 -9 10 -19 10 -11 0 -27 7 -35 16 -15 14 -16 11 -15 -33z"/>
<path d="M970 780 c0 -5 -7 -7 -15 -4 -19 8 -71 -30 -78 -56 -7 -26 -4 -25 34
9 31 28 75 45 84 32 2 -4 30 -4 62 -1 48 5 61 3 77 -12 22 -20 32 -22 41 -8 3
6 10 10 16 10 5 0 9 -4 9 -10 0 -5 -7 -10 -15 -10 -16 0 -19 -24 -5 -55 8 -19
9 -19 9 2 1 32 22 73 38 73 7 0 13 10 13 22 0 20 -1 20 -19 4 -13 -12 -21 -14
-26 -6 -3 5 -11 8 -16 5 -5 -4 -9 0 -10 7 -1 7 -5 2 -9 -12 -7 -21 -8 -22 -9
-5 -1 16 -9 20 -41 22 -23 2 -40 -2 -40 -8 0 -6 -8 -8 -17 -5 -41 12 -83 16
-83 6z"/>
<path d="M749 751 c-19 -15 -20 -19 -6 -24 10 -4 18 1 22 14 6 17 8 17 21 4
13 -13 13 -17 1 -36 -11 -15 -16 -17 -20 -7 -4 9 -6 9 -6 1 -1 -7 11 -19 27
-27 15 -8 23 -15 19 -16 -5 0 1 -13 12 -29 l21 -29 -30 -4 c-17 -3 -30 -1 -30
3 0 4 -14 4 -31 -1 -25 -7 -29 -7 -20 4 6 7 8 16 5 19 -4 4 6 11 21 17 21 8
25 14 17 22 -15 15 -43 2 -49 -22 -3 -11 -10 -17 -16 -13 -6 4 -8 -2 -5 -15 4
-12 2 -22 -4 -22 -6 0 -8 13 -4 34 10 51 -7 51 -28 0 -10 -24 -22 -44 -27 -44
-12 0 -12 1 12 67 24 64 39 87 39 59 0 -12 5 -16 16 -12 9 3 22 6 30 6 8 0 14
5 14 10 0 6 -13 10 -29 10 -16 0 -32 6 -34 13 -4 10 -6 10 -6 0 -1 -7 -8 -13
-16 -13 -8 0 -15 -4 -15 -10 0 -5 -5 -10 -11 -10 -5 0 -7 5 -4 10 3 6 1 10 -4
10 -6 0 -11 -11 -11 -25 0 -14 6 -25 13 -25 8 0 9 -3 1 -8 -6 -4 -14 -14 -17
-22 -3 -9 -6 -4 -6 13 -1 17 -6 27 -16 27 -8 0 -15 5 -15 10 0 6 7 10 15 10 8
0 15 5 15 10 0 6 -7 10 -16 10 -8 0 -12 5 -9 10 4 6 11 8 16 5 5 -4 9 -2 9 3
0 5 -10 12 -23 14 -22 4 -23 3 -19 -65 4 -79 -7 -121 -18 -72 -7 27 -8 25 -9
-15 0 -32 2 -41 9 -30 13 21 33 -1 34 -40 l1 -30 324 2 c249 2 325 6 329 16 3
9 -64 12 -312 12 -302 0 -316 1 -316 19 0 18 14 19 312 20 172 1 314 3 315 5
2 1 0 38 -4 82 l-7 79 -13 -40 c-23 -69 -25 -75 -33 -75 -4 0 -11 20 -14 45
l-7 45 -84 0 c-76 0 -84 -2 -82 -19 1 -16 4 -18 21 -9 11 6 39 12 62 13 35 1
45 -3 55 -21 6 -13 16 -21 21 -18 4 3 8 -12 7 -33 0 -21 -3 -32 -6 -25 -2 6
-9 9 -15 6 -12 -8 -234 -7 -247 0 -5 4 -12 0 -14 -6 -3 -7 -6 -1 -6 14 -1 19
-5 26 -15 22 -9 -4 -18 7 -26 31 -8 25 -16 35 -26 31 -12 -5 -11 0 3 24 17 29
17 29 35 10 23 -25 28 -25 28 0 0 32 -89 47 -121 21z"/>
<path d="M1007 744 c-14 -14 -7 -25 13 -22 12 2 21 8 21 13 0 12 -24 18 -34 9z"/>
<path d="M1078 743 c6 -3 12 -9 12 -14 0 -5 12 -9 27 -9 35 0 19 16 -22 22
-16 3 -24 3 -17 1z"/>
<path d="M1248 745 c-3 -6 -2 -32 2 -60 6 -43 7 -47 14 -24 8 27 -6 101 -16
84z"/>
<path d="M835 688 c11 -36 22 -42 30 -18 5 15 2 26 -6 31 -23 15 -31 10 -24
-13z"/>
<path d="M914 691 c-39 -24 -47 -37 -36 -56 7 -13 10 -12 22 10 8 16 22 25 37
25 13 0 23 6 23 13 0 8 4 7 10 -3 8 -12 10 -11 10 8 0 28 -24 29 -66 3z"/>
<path d="M1249 548 c-4 -51 6 -65 17 -22 4 14 2 35 -3 47 -9 19 -11 15 -14
-25z"/>
<path d="M1366 539 c2 -4 -3 -9 -11 -13 -18 -7 -21 -66 -2 -66 6 0 19 -5 27
-10 13 -9 13 -11 0 -20 -12 -8 -13 -11 -1 -19 10 -6 10 -10 1 -16 -7 -4 -16
-2 -21 6 -6 10 -8 9 -9 -6 0 -11 -3 -48 -6 -82 -5 -52 -2 -68 17 -103 38 -68
133 -99 208 -67 17 7 28 16 24 20 -3 4 1 7 11 7 9 0 14 5 11 10 -3 6 3 10 14
10 15 0 21 -6 21 -21 0 -16 -5 -20 -20 -16 -11 3 -20 1 -20 -5 0 -5 10 -8 23
-6 19 3 22 8 19 46 -1 23 2 42 8 42 6 0 10 31 10 76 0 47 -4 73 -10 69 -5 -3
-10 -1 -10 6 0 7 -7 21 -17 31 -15 17 -15 20 3 54 l19 35 6 -43 6 -43 1 48 c2
36 -2 47 -13 47 -8 0 -15 7 -15 14 0 12 -26 16 -139 18 -77 2 -137 0 -135 -3z
m49 -49 c0 -9 -11 -16 -27 -18 -30 -4 -31 -2 -22 21 7 19 49 16 49 -3z m127 8
c6 -10 8 -10 8 0 0 7 14 12 35 12 19 0 35 -2 35 -4 0 -2 3 -11 6 -20 5 -13 -4
-15 -53 -15 -32 1 -61 6 -65 13 -6 8 -8 8 -8 -1 0 -8 -14 -13 -38 -13 -30 0
-38 4 -38 19 0 15 9 18 55 20 35 1 57 -3 63 -11z m18 -73 c74 -38 98 -142 47
-208 -80 -106 -247 -45 -247 90 0 92 117 161 200 118z"/>
<path d="M1454 335 c-21 -32 -12 -68 19 -82 55 -25 102 43 61 88 -24 27 -60
24 -80 -6z"/>
<path d="M1714 518 c3 -13 6 -30 6 -39 0 -9 11 -21 25 -27 l26 -12 -28 -37
c-23 -30 -28 -48 -30 -97 -1 -38 4 -67 13 -80 8 -11 14 -28 14 -37 0 -32 93
-63 172 -57 35 3 77 1 95 -3 44 -9 60 10 43 50 -9 23 -9 34 1 53 8 12 14 49
14 80 0 51 -2 58 -20 58 -14 0 -16 3 -8 11 9 9 8 16 -3 27 -13 12 -13 16 -2
23 9 6 4 9 -14 9 -18 0 -28 5 -28 14 0 10 -17 17 -57 21 -68 8 -88 13 -80 22
4 3 2 14 -4 24 -8 16 -21 19 -76 19 -63 0 -65 -1 -59 -22z m119 -23 c9 -22
-14 -30 -30 -10 -12 17 -13 17 -13 2 0 -12 -8 -17 -30 -17 -23 0 -30 4 -30 20
0 17 7 20 49 20 34 0 51 -5 54 -15z m125 -74 c43 -23 72 -70 72 -117 0 -88
-57 -144 -146 -144 -85 0 -144 58 -144 140 0 115 112 178 218 121z m85 -272
c-12 -12 -63 -2 -63 13 0 5 3 7 8 5 4 -3 16 -1 27 3 24 9 44 -5 28 -21z"/>
<path d="M1850 335 c-23 -24 -24 -28 -9 -53 20 -36 61 -41 83 -10 19 27 20 39
4 60 -23 29 -52 30 -78 3z m58 -32 c-3 -29 -23 -39 -47 -24 -22 14 -4 51 25
51 22 0 25 -4 22 -27z"/>
<path d="M2117 522 c-24 -26 -21 -59 4 -67 12 -4 18 -13 15 -20 -6 -17 20 -40
29 -25 3 5 19 17 34 24 42 22 35 -3 -10 -39 -21 -17 -41 -41 -45 -55 -3 -14
-8 -32 -11 -40 -5 -13 -7 -12 -10 2 -2 9 3 32 11 51 12 31 13 37 0 48 -11 9
-14 7 -14 -14 0 -14 -4 -29 -10 -32 -12 -7 -14 -115 -2 -115 4 0 16 -16 26
-35 11 -19 25 -35 33 -35 19 0 16 -18 -4 -23 -11 -3 -9 -5 7 -5 14 1 43 -4 65
-9 44 -11 104 0 106 20 1 7 2 30 3 52 1 40 1 40 41 42 22 1 48 2 58 2 14 1 17
11 17 64 -1 55 -4 66 -31 95 -16 18 -34 30 -39 27 -6 -3 -10 1 -10 10 0 10 5
13 12 9 7 -5 8 -3 3 5 -4 7 -18 11 -32 8 -31 -6 -67 26 -60 54 5 18 -1 19 -82
19 -72 0 -91 -3 -104 -18z m166 -18 c3 -3 3 -12 1 -19 -4 -9 -28 -13 -80 -13
-66 0 -74 2 -74 19 0 17 8 19 73 19 41 0 76 -3 80 -6z m55 -78 c15 -8 36 -23
46 -35 10 -11 23 -18 27 -15 5 3 14 -7 19 -21 12 -33 13 -95 1 -95 -5 0 -8 17
-6 38 1 20 0 27 -2 15 -4 -19 -11 -23 -46 -23 -56 -1 -84 -35 -68 -82 17 -48
15 -51 -39 -46 -54 5 -90 30 -116 80 -25 47 -19 58 31 58 32 0 45 4 45 14 0 7
7 19 16 27 15 12 14 26 -2 82 -4 14 1 17 31 17 20 0 48 -6 63 -14z"/>
<path d="M2295 326 c17 -14 32 -20 34 -14 5 14 -27 38 -48 38 -11 0 -6 -8 14
-24z"/>
<path d="M2500 529 c0 -5 -4 -7 -10 -4 -5 3 -10 0 -10 -7 0 -7 -3 -22 -6 -33
-4 -17 3 -24 35 -38 51 -23 67 -23 114 -3 21 9 37 12 37 6 0 -5 -7 -10 -15
-10 -10 0 -15 -10 -15 -33 0 -46 -42 -87 -70 -69 -18 11 -20 9 -21 -10 0 -22
-1 -22 -9 -3 -7 15 -8 11 -8 -20 0 -22 2 -32 5 -22 3 13 15 17 49 17 31 0 44
4 44 14 0 8 11 23 25 34 20 16 25 29 25 66 0 46 1 46 28 40 15 -4 33 -11 40
-17 10 -8 16 -7 21 1 4 7 12 8 21 2 12 -8 11 -10 -4 -10 -18 0 -16 -3 9 -30
40 -42 47 -120 13 -170 -32 -48 -82 -72 -137 -67 -29 3 -39 2 -30 -5 11 -7 9
-8 -6 -5 -11 2 -19 9 -17 15 1 7 -5 15 -13 19 -9 3 -27 22 -40 42 -14 19 -25
30 -25 22 0 -7 15 -28 34 -47 19 -19 31 -34 27 -34 -10 0 -56 51 -70 77 -14
27 -15 103 -1 103 5 0 16 14 25 30 16 31 7 41 -15 15 -6 -8 -8 -20 -4 -26 4
-7 3 -9 -4 -5 -13 8 -31 -23 -34 -56 -1 -13 -4 6 -8 42 l-7 65 -1 -85 c-1 -56
2 -80 8 -70 9 14 11 11 35 -59 3 -7 1 -19 -5 -26 -12 -15 12 -40 32 -32 8 4 7
6 -4 6 -22 1 -24 31 -3 31 9 0 18 -7 21 -15 9 -23 69 -34 177 -33 107 2 127
11 107 48 -9 16 -9 29 0 53 22 58 21 96 0 145 -18 39 -19 50 -9 70 11 19 10
25 -3 38 -13 13 -22 14 -45 6 l-28 -10 38 -1 c39 -1 46 -11 23 -30 -11 -9 -16
-9 -23 2 -4 7 -27 18 -50 24 -33 8 -51 7 -94 -8 -29 -11 -55 -19 -56 -19 -2 0
-3 12 -3 26 0 44 -17 64 -55 64 -19 0 -35 -5 -35 -11z m36 -31 c-5 8 0 12 15
12 12 0 19 -3 16 -7 -4 -3 -2 -12 4 -20 9 -10 4 -13 -30 -13 -27 0 -41 4 -41
13 0 22 12 28 28 14 13 -9 14 -9 8 1z"/>
<path d="M1681 471 c1 -23 3 -28 6 -13 2 12 9 22 14 22 5 0 9 6 9 13 0 8 -7
14 -15 14 -11 0 -15 -10 -14 -36z"/>
<path d="M2083 450 c0 -36 2 -50 4 -32 2 17 2 47 0 65 -2 17 -4 3 -4 -33z"/>
<path d="M1148 443 c23 -2 59 -2 80 0 20 2 1 4 -43 4 -44 0 -61 -2 -37 -4z"/>
<path d="M1301 325 c1 -52 5 -95 10 -95 5 0 9 43 9 95 0 59 -4 95 -10 95 -7 0
-10 -35 -9 -95z"/>
<path d="M2083 305 c0 -44 2 -61 4 -37 2 23 2 59 0 80 -2 20 -4 1 -4 -43z"/>
<path d="M2690 331 c15 -29 13 -37 -15 -65 -22 -22 -24 -30 -16 -58 l9 -33 1
37 c1 28 6 38 22 43 41 13 45 95 3 95 -11 0 -12 -4 -4 -19z"/>
<path d="M2385 188 c-15 -22 -14 -24 6 -41 23 -19 60 -20 66 -1 2 6 -10 8 -32
6 -21 -3 -35 0 -35 7 0 6 8 11 18 12 10 0 12 3 5 6 -18 7 -16 23 2 23 8 0 15
-4 15 -9 0 -5 8 -12 17 -15 15 -6 15 -4 -2 14 -23 26 -40 25 -60 -2z"/>
</g>
</svg>
